<?xml version="1.0" encoding="UTF-8"?>
<svg width="52px" height="52px" viewBox="0 0 52 52" version="1.1" xmlns="http://www.w3.org/2000/svg" xmlns:xlink="http://www.w3.org/1999/xlink">
    <title>Icon</title>
    <g id="Design" stroke="none" stroke-width="1" fill="none" fill-rule="evenodd">
        <g id="Home" transform="translate(-693, -668)">
            <g id="Group-3" transform="translate(0, 567)">
                <g id="Group" transform="translate(607, 101)">
                    <g id="Icon" transform="translate(86, 0)">
                        <circle id="Oval" fill="#60A8D3" cx="26" cy="26" r="26"></circle>
                        <g id="engineering" transform="translate(15, 15)" fill="#FFFFFF" fill-rule="nonzero">
                            <path d="M0.304043187,3.2952389 C0.288708081,3.3049619 0.27912364,3.3146849 0.263788534,3.33024169 C-0.0655940784,4.29860416 -0.0870492765,5.34742243 0.20244811,6.32881373 C0.849112931,8.5220912 2.90157624,9.97305581 5.15377045,9.82909237 C5.37612948,9.81548018 5.60423918,9.83492617 5.82659822,9.86798436 C6.39591403,9.94576833 6.85213343,10.2355136 7.25084618,10.6458241 C10.7319152,14.1849947 14.2206518,17.7144423 17.7093884,21.253613 C18.2729536,21.8253251 18.9400307,22.078123 19.7317055,21.9789485 C20.9489296,21.8253251 21.8690359,20.559391 21.662012,19.3381827 C21.5737068,18.8160303 21.3239741,18.3359047 20.9489296,17.9672402 C17.4576051,14.4306958 13.9688676,10.8915242 10.4827198,7.34972833 C10.3748974,7.24393744 10.2749458,7.13019142 10.1836852,7.00942347 C9.77347111,6.46882488 9.65079027,5.84266392 9.68146048,5.17177718 C9.69798988,4.8292797 9.68065129,4.48596385 9.6297045,4.14697338 C9.44257147,2.8285955 8.71952125,1.65005396 7.63614072,0.897548033 C6.55501575,0.119708335 5.34929305,-0.136978766 4.0515597,0.067204155 C3.78511224,0.109985338 3.53208299,0.187769308 3.27330308,0.251941083 L3.25796797,0.298611465 C3.29438885,0.325835855 3.3346435,0.351115645 3.37298127,0.382229233 C4.33525917,1.36036265 5.29753706,2.33655148 6.25981496,3.3069065 C6.32115539,3.37107828 6.35757626,3.42747165 6.33649049,3.51303402 C6.27898384,3.74249673 6.2540643,3.98557164 6.16205366,4.19364376 C5.81509689,4.96759426 5.25536552,5.56069703 4.56145198,6.02156705 C4.24268129,6.25164222 3.86979972,6.39248819 3.48032701,6.42993289 C3.39960022,6.43783253 3.31976236,6.40772931 3.26371864,6.34825972 C2.30144074,5.3720709 1.33916284,4.39588208 0.380718717,3.41969326 C0.338547176,3.38274587 0.32321207,3.33607549 0.304043187,3.29329431 L0.304043187,3.2952389 Z M19.0512102,0.504738986 L12.5184551,7.13193322 L16.4729955,11.1436415 C18.642913,8.94235512 20.8262487,6.72745658 23,4.51644723 C21.6907653,3.18828595 20.3661956,1.84456787 19.0512102,0.504738986 Z M11.0002796,16.7246413 L7.01506893,12.6798749 C6.99442691,12.6963541 6.97519001,12.7145681 6.95756228,12.7343236 C5.58698719,14.1247121 4.22024587,15.5112114 2.85542144,16.9035444 C2.81239675,16.9501576 2.78316868,17.0081111 2.77107836,17.07078 L1.91997998,21.2633359 C1.87205777,21.4889095 1.83180312,21.714483 1.7857978,21.9400565 C1.79897696,21.9434292 1.81246957,21.9453845 1.82605245,21.9458903 C3.43623858,21.6405882 5.05025848,21.3430645 6.66044461,21.0319286 C6.73925918,21.0145299 6.81126865,20.9739463 6.86746854,20.9152527 C8.22080528,19.5462705 9.57285108,18.1759756 10.9236041,16.8043699 L11.0002796,16.7265859 L11.0002796,16.7246413 Z" id="Shape"></path>
                        </g>
                    </g>
                </g>
            </g>
        </g>
    </g>
</svg>