<?xml version="1.0" encoding="UTF-8"?>
<svg width="52px" height="52px" viewBox="0 0 52 52" version="1.1" xmlns="http://www.w3.org/2000/svg" xmlns:xlink="http://www.w3.org/1999/xlink">
    <title>Icon</title>
    <g id="Design" stroke="none" stroke-width="1" fill="none" fill-rule="evenodd">
        <g id="Home" transform="translate(-1015, -668)">
            <g id="Group-3" transform="translate(0, 567)">
                <g id="Group" transform="translate(929, 101)">
                    <g id="Icon" transform="translate(86, 0)">
                        <circle id="Oval" fill="#60A8D3" cx="26" cy="26" r="26"></circle>
                        <g id="tool-fill" transform="translate(15, 15)" fill="#FFFFFF" fill-rule="nonzero">
                            <path d="M23,12 L23,20 C23,21.1045695 22.0914014,22 20.9705882,22 L2.02941176,22 C1.4911783,22 0.974989476,21.7892863 0.594400944,21.4142136 C0.213812411,21.0391408 0,20.530433 0,20 L0,12 L8.11764705,12 L8.11764705,16 L14.8823529,16 L14.8823529,12 L23,12 Z M12.8529412,12 L12.8529412,14 L10.1470588,14 L10.1470588,12 L12.8529412,12 Z M15.5588235,0 C16.6796367,0 17.5882353,0.895430499 17.5882353,2 L17.5882353,7.33333333 L18.9411765,7.33333333 L18.9411765,4.66666665 L20.9705882,4.66666665 C21.5088217,4.66666665 22.0250105,4.87738033 22.4055991,5.25245309 C22.7861876,5.62752585 23,6.13623367 23,6.66666665 L23,10 L0,10 L0,6.66666665 C0,5.56209715 0.908598595,4.66666665 2.02941176,4.66666665 L4.05882353,4.66666665 L4.05882353,7.33333333 L5.41176471,7.33333333 L5.41176471,2 C5.41176471,0.895430499 6.32036331,0 7.44117647,0 L15.5588235,0 L15.5588235,0 Z M15.5588235,2 L7.44117647,2 L7.44117647,4.66666665 L15.5588235,4.66666665 L15.5588235,2 L15.5588235,2 Z" id="Shape"></path>
                        </g>
                    </g>
                </g>
            </g>
        </g>
    </g>
</svg>